# MagicaVoxel @ Ephtracy

# group
o 

# material
mtllib FoundationWallCorner-0.mtl
usemtl palette

# normals
vn -1 0 0
vn 1 0 0
vn 0 0 1
vn 0 0 -1
vn 0 -1 0
vn 0 1 0

# texcoords
vt 0.0410156 0.5
vt 0.0449219 0.5
vt 0.0488281 0.5

# verts
v 0 0 1.3
v 0 0 0.2
v 0 0 0
v 0 0.1 1.5
v 0 0.1 1.4
v 0 0.1 1.3
v 0 0.1 0.2
v 0 0.3 1.5
v 0 0.3 1.4
v 0 1.8 1.5
v 0 1.8 1.4
v 0 1.8 0.3
v 0 1.9 1.5
v 0 1.9 1.4
v 0 1.9 1.3
v 0 1.9 0.3
v 0 3.6 1.5
v 0 3.6 1.4
v 0 3.6 1.3
v 0 3.6 0.3
v 0 3.7 1.3
v 0 3.7 0.3
v 0 3.8 1.5
v 0 3.8 1.4
v 0 3.8 1.3
v 0 5.4 1.5
v 0 5.4 1.3
v 0 5.4 0.3
v 0 5.5 1.5
v 0 5.5 1.3
v 0 5.5 0.3
v 0 6.1 1.3
v 0 6.1 0.3
v 0 6.2 1.5
v 0 6.2 1.4
v 0 6.2 0.3
v 0 6.2 0.2
v 0 6.3 1.4
v 0 6.3 0.2
v 0 6.3 0
v 0.1 3.7 1.5
v 0.1 3.7 1.4
v 0.1 3.8 1.5
v 0.1 3.8 1.4
v 0.2 6.2 1.5
v 0.2 6.2 1.4
v 0.2 6.3 1.5
v 0.2 6.3 1.4
v 1.4 1.8 1.4
v 1.4 1.8 0
v 1.4 1.9 1.4
v 1.4 1.9 0
v 1.4 3.6 1.4
v 1.4 3.6 0.3
v 1.4 3.6 0
v 1.4 3.7 1.4
v 1.4 3.7 0.3
v 1.4 3.7 0
v 1.4 5.4 1.3
v 1.4 5.4 0.3
v 1.4 5.4 0
v 1.4 5.5 1.3
v 1.4 5.5 0.3
v 1.4 5.5 0
v 1.5 0 1.3
v 1.5 0 0
v 1.5 0.1 1.5
v 1.5 0.1 1.3
v 1.5 0.2 1.5
v 1.5 0.2 0.4
v 1.5 0.3 0.4
v 1.5 0.3 0
v 1.5 1.8 1.5
v 1.5 1.8 0
v 1.5 1.9 1.5
v 1.5 1.9 0
v 1.5 3.6 1.5
v 1.5 3.6 0
v 1.5 3.7 1.5
v 1.5 3.7 0
v 1.5 3.8 1.5
v 1.5 3.8 0.9
v 1.5 3.8 0.8
v 1.5 3.8 0.7
v 1.5 3.8 0.4
v 1.5 3.8 0
v 1.5 3.9 0.9
v 1.5 3.9 0.8
v 1.5 3.9 0.7
v 1.5 3.9 0.4
v 1.5 5.4 1.5
v 1.5 5.4 0
v 1.5 5.5 1.5
v 1.5 5.5 0
v 1.5 6.3 1.5
v 1.5 6.3 0
v 0 0.1 1.5
v 0 0.3 1.5
v 0 1.8 1.5
v 0 1.9 1.5
v 0 3.6 1.5
v 0 3.8 1.5
v 0 5.4 1.5
v 0 5.5 1.5
v 0 6.2 1.5
v 0.1 3.7 1.5
v 0.1 3.8 1.5
v 0.2 3.8 1.5
v 0.2 3.9 1.5
v 0.2 6.2 1.5
v 0.2 6.3 1.5
v 0.3 0.2 1.5
v 0.3 0.3 1.5
v 0.4 0.2 1.5
v 0.4 0.3 1.5
v 0.4 3.8 1.5
v 0.4 3.9 1.5
v 0.5 0.2 1.5
v 0.5 0.3 1.5
v 1.5 0.1 1.5
v 1.5 0.2 1.5
v 1.5 1.8 1.5
v 1.5 1.9 1.5
v 1.5 3.6 1.5
v 1.5 3.7 1.5
v 1.5 3.8 1.5
v 1.5 5.4 1.5
v 1.5 5.5 1.5
v 1.5 6.3 1.5
v 0 1.8 1.4
v 0 1.9 1.4
v 0 3.6 1.4
v 0 3.8 1.4
v 0 6.2 1.4
v 0 6.3 1.4
v 0.1 3.7 1.4
v 0.1 3.8 1.4
v 0.2 6.2 1.4
v 0.2 6.3 1.4
v 1.4 1.8 1.4
v 1.4 1.9 1.4
v 1.4 3.6 1.4
v 1.4 3.7 1.4
v 0 0 1.3
v 0 0.1 1.3
v 0 5.4 1.3
v 0 5.5 1.3
v 0.1 0.1 1.3
v 1.4 5.4 1.3
v 1.4 5.5 1.3
v 1.5 0 1.3
v 1.5 0.1 1.3
v 0 0 0
v 0 6.3 0
v 1.3 1.8 0
v 1.3 3.6 0
v 1.4 0 0
v 1.4 0.3 0
v 1.4 1.8 0
v 1.4 1.9 0
v 1.4 3.6 0
v 1.4 3.7 0
v 1.4 3.8 0
v 1.4 5.4 0
v 1.4 5.5 0
v 1.4 6.3 0
v 1.5 0 0
v 1.5 0.3 0
v 1.5 1.8 0
v 1.5 1.9 0
v 1.5 3.6 0
v 1.5 3.7 0
v 1.5 3.8 0
v 1.5 5.4 0
v 1.5 5.5 0
v 1.5 6.3 0
v 0 0 1.3
v 1.5 0 1.3
v 0 0 0.2
v 1.4 0 0.2
v 0 0 0
v 1.4 0 0
v 1.5 0 0
v 0 0.1 1.5
v 1.5 0.1 1.5
v 0 0.1 1.4
v 0.1 0.1 1.4
v 0 0.1 1.3
v 0.1 0.1 1.3
v 1.5 0.1 1.3
v 0 1.9 1.5
v 1.5 1.9 1.5
v 0 1.9 1.4
v 1.4 1.9 1.4
v 1.4 1.9 0
v 1.5 1.9 0
v 0.1 3.7 1.5
v 1.5 3.7 1.5
v 0.1 3.7 1.4
v 1.4 3.7 1.4
v 1.4 3.7 0.3
v 1.4 3.7 0
v 1.5 3.7 0
v 0 3.8 1.5
v 0.1 3.8 1.5
v 0 3.8 1.4
v 0.1 3.8 1.4
v 0 5.5 1.5
v 1.5 5.5 1.5
v 0 5.5 1.3
v 1.4 5.5 1.3
v 1.4 5.5 0.3
v 1.4 5.5 0
v 1.5 5.5 0
v 0 1.8 1.5
v 1.5 1.8 1.5
v 0 1.8 1.4
v 1.4 1.8 1.4
v 1.4 1.8 0
v 1.5 1.8 0
v 0 3.6 1.5
v 1.5 3.6 1.5
v 0 3.6 1.4
v 1.4 3.6 1.4
v 1.4 3.6 0.3
v 1.4 3.6 0
v 1.5 3.6 0
v 0 5.4 1.5
v 1.5 5.4 1.5
v 0 5.4 1.3
v 1.4 5.4 1.3
v 1.4 5.4 0.3
v 1.4 5.4 0
v 1.5 5.4 0
v 0 6.2 1.5
v 0.2 6.2 1.5
v 0 6.2 1.4
v 0.2 6.2 1.4
v 0.2 6.3 1.5
v 1.5 6.3 1.5
v 0 6.3 1.4
v 0.2 6.3 1.4
v 0 6.3 0.2
v 1.4 6.3 0.2
v 0 6.3 0
v 1.4 6.3 0
v 1.5 6.3 0

# faces
f 6/3/1 2/3/1 1/3/1
f 7/2/1 3/2/1 2/2/1
f 7/3/1 2/3/1 6/3/1
f 8/3/1 5/3/1 4/3/1
f 9/2/1 6/2/1 5/2/1
f 9/3/1 5/3/1 8/3/1
f 9/2/1 7/2/1 6/2/1
f 10/2/1 9/2/1 8/2/1
f 11/2/1 7/2/1 9/2/1
f 11/2/1 9/2/1 10/2/1
f 12/2/1 7/2/1 11/2/1
f 14/3/1 12/3/1 11/3/1
f 15/3/1 12/3/1 14/3/1
f 16/2/1 7/2/1 12/2/1
f 16/3/1 12/3/1 15/3/1
f 17/3/1 15/3/1 14/3/1
f 17/3/1 14/3/1 13/3/1
f 18/3/1 15/3/1 17/3/1
f 19/2/1 16/2/1 15/2/1
f 19/3/1 15/3/1 18/3/1
f 20/2/1 7/2/1 16/2/1
f 20/2/1 16/2/1 19/2/1
f 21/3/1 19/3/1 18/3/1
f 21/3/1 20/3/1 19/3/1
f 22/2/1 7/2/1 20/2/1
f 22/3/1 20/3/1 21/3/1
f 24/3/1 21/3/1 18/3/1
f 25/2/1 22/2/1 21/2/1
f 25/3/1 21/3/1 24/3/1
f 26/1/1 24/1/1 23/1/1
f 26/1/1 25/1/1 24/1/1
f 27/2/1 22/2/1 25/2/1
f 27/1/1 25/1/1 26/1/1
f 28/2/1 7/2/1 22/2/1
f 28/2/1 22/2/1 27/2/1
f 30/3/1 28/3/1 27/3/1
f 31/2/1 7/2/1 28/2/1
f 31/3/1 28/3/1 30/3/1
f 32/3/1 30/3/1 29/3/1
f 32/2/1 31/2/1 30/2/1
f 33/2/1 7/2/1 31/2/1
f 33/2/1 31/2/1 32/2/1
f 34/3/1 32/3/1 29/3/1
f 34/3/1 33/3/1 32/3/1
f 35/3/1 33/3/1 34/3/1
f 36/2/1 7/2/1 33/2/1
f 36/3/1 33/3/1 35/3/1
f 37/2/1 3/2/1 7/2/1
f 37/2/1 7/2/1 36/2/1
f 38/3/1 36/3/1 35/3/1
f 38/3/1 37/3/1 36/3/1
f 39/2/1 3/2/1 37/2/1
f 39/3/1 37/3/1 38/3/1
f 40/2/1 3/2/1 39/2/1
f 43/2/1 42/2/1 41/2/1
f 44/2/1 42/2/1 43/2/1
f 47/3/1 46/3/1 45/3/1
f 48/3/1 46/3/1 47/3/1
f 49/3/2 50/3/2 51/3/2
f 51/3/2 50/3/2 52/3/2
f 53/3/2 54/3/2 56/3/2
f 54/2/2 55/2/2 57/2/2
f 56/3/2 54/3/2 57/3/2
f 57/2/2 55/2/2 58/2/2
f 59/3/2 60/3/2 62/3/2
f 60/2/2 61/2/2 63/2/2
f 62/3/2 60/3/2 63/3/2
f 63/2/2 61/2/2 64/2/2
f 65/3/2 66/3/2 68/3/2
f 67/3/2 68/3/2 69/3/2
f 68/3/2 66/3/2 70/3/2
f 69/3/2 68/3/2 70/3/2
f 69/2/2 70/2/2 71/2/2
f 70/3/2 66/3/2 71/3/2
f 71/3/2 66/3/2 72/3/2
f 69/2/2 71/2/2 73/2/2
f 71/2/2 72/2/2 73/2/2
f 73/2/2 72/2/2 74/2/2
f 75/3/2 76/3/2 77/3/2
f 77/3/2 76/3/2 78/3/2
f 79/2/2 80/2/2 81/2/2
f 81/2/2 80/2/2 82/2/2
f 82/2/2 80/2/2 83/2/2
f 83/2/2 80/2/2 84/2/2
f 84/2/2 80/2/2 85/2/2
f 85/2/2 80/2/2 86/2/2
f 81/1/2 82/1/2 87/1/2
f 82/2/2 83/2/2 87/2/2
f 83/1/2 84/1/2 88/1/2
f 87/2/2 83/2/2 88/2/2
f 84/2/2 85/2/2 89/2/2
f 88/1/2 84/1/2 89/1/2
f 85/1/2 86/1/2 90/1/2
f 89/2/2 85/2/2 90/2/2
f 88/1/2 89/1/2 91/1/2
f 81/1/2 87/1/2 91/1/2
f 89/1/2 90/1/2 91/1/2
f 87/1/2 88/1/2 91/1/2
f 90/1/2 86/1/2 92/1/2
f 91/1/2 90/1/2 92/1/2
f 93/3/2 94/3/2 95/3/2
f 95/3/2 94/3/2 96/3/2
f 107/1/3 103/1/3 102/1/3
f 108/1/3 103/1/3 107/1/3
f 108/2/3 107/2/3 106/2/3
f 109/1/3 103/1/3 108/1/3
f 110/3/3 105/3/3 104/3/3
f 112/3/3 98/3/3 97/3/3
f 113/2/3 99/2/3 98/2/3
f 113/3/3 98/3/3 112/3/3
f 114/3/3 112/3/3 97/3/3
f 114/2/3 113/2/3 112/2/3
f 115/2/3 99/2/3 113/2/3
f 115/2/3 113/2/3 114/2/3
f 116/2/3 108/2/3 106/2/3
f 116/2/3 109/2/3 108/2/3
f 117/1/3 103/1/3 109/1/3
f 117/2/3 109/2/3 116/2/3
f 118/3/3 114/3/3 97/3/3
f 118/3/3 115/3/3 114/3/3
f 119/2/3 99/2/3 115/2/3
f 119/3/3 115/3/3 118/3/3
f 120/3/3 118/3/3 97/3/3
f 121/2/3 119/2/3 118/2/3
f 121/3/3 118/3/3 120/3/3
f 122/2/3 99/2/3 119/2/3
f 122/2/3 119/2/3 121/2/3
f 123/3/3 101/3/3 100/3/3
f 124/3/3 101/3/3 123/3/3
f 125/2/3 116/2/3 106/2/3
f 126/1/3 117/1/3 116/1/3
f 126/2/3 116/2/3 125/2/3
f 127/1/3 103/1/3 117/1/3
f 127/1/3 117/1/3 126/1/3
f 128/3/3 111/3/3 110/3/3
f 128/3/3 110/3/3 104/3/3
f 129/3/3 111/3/3 128/3/3
f 136/3/3 133/3/3 132/3/3
f 137/3/3 133/3/3 136/3/3
f 138/3/3 135/3/3 134/3/3
f 139/3/3 135/3/3 138/3/3
f 140/3/3 131/3/3 130/3/3
f 141/3/3 131/3/3 140/3/3
f 142/3/3 136/3/3 132/3/3
f 143/3/3 136/3/3 142/3/3
f 148/3/3 145/3/3 144/3/3
f 149/3/3 147/3/3 146/3/3
f 150/3/3 147/3/3 149/3/3
f 151/3/3 148/3/3 144/3/3
f 152/3/3 148/3/3 151/3/3
f 153/2/4 154/2/4 155/2/4
f 155/2/4 154/2/4 156/2/4
f 153/2/4 155/2/4 157/2/4
f 157/2/4 155/2/4 158/2/4
f 155/3/4 156/3/4 159/3/4
f 158/2/4 155/2/4 159/2/4
f 159/3/4 156/3/4 160/3/4
f 156/2/4 154/2/4 161/2/4
f 160/3/4 156/3/4 161/3/4
f 161/2/4 154/2/4 162/2/4
f 162/2/4 154/2/4 163/2/4
f 163/2/4 154/2/4 164/2/4
f 164/2/4 154/2/4 165/2/4
f 165/2/4 154/2/4 166/2/4
f 157/3/4 158/3/4 167/3/4
f 158/2/4 159/2/4 168/2/4
f 167/3/4 158/3/4 168/3/4
f 168/2/4 159/2/4 169/2/4
f 160/3/4 161/3/4 170/3/4
f 170/3/4 161/3/4 171/3/4
f 162/2/4 163/2/4 172/2/4
f 163/1/4 164/1/4 173/1/4
f 172/2/4 163/2/4 173/2/4
f 173/1/4 164/1/4 174/1/4
f 165/3/4 166/3/4 175/3/4
f 175/3/4 166/3/4 176/3/4
f 179/3/5 178/3/5 177/3/5
f 180/3/5 178/3/5 179/3/5
f 181/2/5 180/2/5 179/2/5
f 182/3/5 178/3/5 180/3/5
f 182/2/5 180/2/5 181/2/5
f 183/3/5 178/3/5 182/3/5
f 186/3/5 185/3/5 184/3/5
f 187/3/5 185/3/5 186/3/5
f 188/2/5 187/2/5 186/2/5
f 189/3/5 185/3/5 187/3/5
f 189/2/5 187/2/5 188/2/5
f 190/3/5 185/3/5 189/3/5
f 193/3/5 192/3/5 191/3/5
f 194/3/5 192/3/5 193/3/5
f 195/3/5 192/3/5 194/3/5
f 196/3/5 192/3/5 195/3/5
f 199/2/5 198/2/5 197/2/5
f 200/2/5 198/2/5 199/2/5
f 201/2/5 198/2/5 200/2/5
f 202/2/5 198/2/5 201/2/5
f 203/2/5 198/2/5 202/2/5
f 206/1/5 205/1/5 204/1/5
f 207/1/5 205/1/5 206/1/5
f 210/3/5 209/3/5 208/3/5
f 211/3/5 209/3/5 210/3/5
f 212/3/5 209/3/5 211/3/5
f 213/3/5 209/3/5 212/3/5
f 214/3/5 209/3/5 213/3/5
f 215/2/6 216/2/6 217/2/6
f 217/2/6 216/2/6 218/2/6
f 218/2/6 216/2/6 219/2/6
f 219/2/6 216/2/6 220/2/6
f 221/3/6 222/3/6 223/3/6
f 223/3/6 222/3/6 224/3/6
f 224/3/6 222/3/6 225/3/6
f 225/3/6 222/3/6 226/3/6
f 226/3/6 222/3/6 227/3/6
f 228/1/6 229/1/6 230/1/6
f 230/1/6 229/1/6 231/1/6
f 231/1/6 229/1/6 232/1/6
f 232/1/6 229/1/6 233/1/6
f 233/1/6 229/1/6 234/1/6
f 235/3/6 236/3/6 237/3/6
f 237/3/6 236/3/6 238/3/6
f 239/3/6 240/3/6 242/3/6
f 241/3/6 242/3/6 243/3/6
f 242/3/6 240/3/6 244/3/6
f 243/3/6 242/3/6 244/3/6
f 243/2/6 244/2/6 245/2/6
f 244/3/6 240/3/6 246/3/6
f 245/2/6 244/2/6 246/2/6
f 246/3/6 240/3/6 247/3/6
